<?xml version="1.0" standalone="no"?>
<!DOCTYPE svg PUBLIC "-//W3C//DTD SVG 20010904//EN"
 "http://www.w3.org/TR/2001/REC-SVG-20010904/DTD/svg10.dtd">
<svg version="1.0" xmlns="http://www.w3.org/2000/svg"
 width="400.000000pt" height="250.000000pt" viewBox="0 0 400.000000 250.000000"
 preserveAspectRatio="xMidYMid meet">

<g transform="translate(0.000000,250.000000) scale(0.100000,-0.100000)"
fill="#000000" stroke="none">
<path d="M416 1444 c-17 -43 -8 -54 44 -54 l50 0 2 -162 3 -163 37 -3 37 -3 3
163 3 163 30 3 c55 5 75 12 75 27 0 8 -4 15 -10 15 -5 0 -10 7 -10 15 0 23
-255 22 -264 -1z"/>
<path d="M746 1444 c-3 -9 -6 -99 -6 -200 l0 -184 40 0 40 0 0 76 0 75 27 -3
c22 -2 31 -12 48 -53 11 -27 22 -52 26 -55 3 -3 8 -13 12 -22 4 -13 17 -18 41
-18 33 0 35 2 27 23 -5 12 -19 47 -31 78 l-21 56 30 31 c27 26 31 38 31 82 0
44 -4 56 -29 81 -20 19 -40 29 -60 29 -17 0 -31 5 -31 10 0 6 -30 10 -69 10
-54 0 -70 -4 -75 -16z m186 -70 c4 -3 8 -23 8 -44 0 -21 -4 -41 -8 -44 -5 -3
-32 -8 -60 -12 l-52 -7 0 63 0 63 52 -7 c28 -4 55 -9 60 -12z"/>
<path d="M1386 1444 c-3 -9 -6 -99 -6 -201 l0 -185 111 4 c107 3 112 4 135 31
23 27 24 35 24 160 0 157 -6 172 -75 183 -25 3 -45 10 -45 15 0 5 -31 9 -69 9
-54 0 -70 -4 -75 -16z m180 -79 c17 -23 13 -197 -5 -219 -9 -11 -30 -16 -62
-16 l-49 0 0 123 c0 68 3 127 8 131 13 14 95 -1 108 -19z"/>
<path d="M1736 1444 c-3 -9 -6 -99 -6 -200 l0 -184 35 0 35 0 0 184 c0 101 -3
191 -6 200 -3 9 -16 16 -29 16 -13 0 -26 -7 -29 -16z"/>
<path d="M1890 1445 c0 -8 0 -94 0 -190 0 -96 0 -179 0 -185 0 -5 16 -10 35
-10 l35 0 0 116 c0 77 3 113 10 109 6 -4 24 -36 41 -71 17 -35 36 -70 42 -77
7 -7 20 -26 29 -42 13 -23 25 -31 52 -33 l36 -3 0 185 c0 101 -3 191 -6 200
-3 9 -17 16 -30 16 -31 0 -37 -24 -32 -149 1 -56 0 -101 -4 -101 -5 0 -8 6 -8
13 0 7 -9 23 -19 34 -11 11 -41 62 -68 112 -45 86 -49 91 -80 91 -23 0 -33 -5
-33 -15z"/>
<path d="M2315 1449 c-5 -5 -22 -19 -37 -30 l-28 -20 0 -137 c0 -169 5 -182
80 -201 72 -18 141 -8 178 26 24 22 27 33 31 104 l3 80 -73 -3 -74 -3 -3 -32
c-3 -32 -2 -33 32 -33 33 0 36 -2 36 -30 0 -51 -80 -70 -121 -29 -19 19 -20
30 -17 125 3 118 7 124 74 124 43 0 59 -11 66 -45 2 -15 11 -20 38 -20 34 0
35 1 34 37 -1 38 -32 77 -61 78 -7 0 -13 5 -13 10 0 13 -132 12 -145 -1z"/>
<path d="M2802 1447 c-65 -59 -73 -70 -70 -95 2 -22 9 -28 35 -30 29 -3 34 1
47 32 13 32 19 36 53 36 51 0 66 -12 65 -50 -1 -42 -16 -57 -72 -74 -110 -33
-140 -64 -140 -147 l0 -59 140 0 140 0 0 35 0 35 -100 0 c-78 0 -100 3 -100
14 0 20 22 35 79 52 29 8 61 23 73 32 54 44 58 51 58 107 0 48 -4 60 -26 80
-15 14 -33 25 -40 25 -8 0 -14 5 -14 10 0 14 -112 12 -128 -3z"/>
<path d="M3180 1451 c0 -5 -29 -19 -65 -31 -53 -18 -65 -25 -65 -43 0 -30 18
-55 28 -41 4 6 17 13 30 16 22 6 22 5 22 -107 l0 -114 -42 -3 c-40 -3 -43 -5
-46 -35 l-3 -33 110 0 111 0 0 35 c0 32 -2 35 -30 35 l-30 0 0 165 c0 103 -4
165 -10 165 -5 0 -10 -4 -10 -9z"/>
<path d="M3363 1425 c-25 -26 -33 -44 -33 -70 0 -35 1 -36 32 -33 24 2 34 9
36 23 7 33 23 45 61 45 45 0 61 -14 61 -56 0 -40 -14 -51 -90 -74 -40 -12 -71
-29 -92 -52 -28 -29 -32 -40 -33 -88 l0 -55 138 -3 137 -3 0 36 0 35 -100 0
c-55 0 -100 4 -100 9 0 19 32 40 85 56 30 8 55 20 55 25 0 5 12 13 26 16 28 7
54 54 54 99 0 45 -26 92 -54 99 -14 3 -26 11 -26 16 0 6 -28 10 -62 10 -59 0
-65 -3 -95 -35z"/>
</g>
</svg>
