<?xml version="1.0" standalone="no"?>
<!DOCTYPE svg PUBLIC "-//W3C//DTD SVG 20010904//EN"
 "http://www.w3.org/TR/2001/REC-SVG-20010904/DTD/svg10.dtd">
<svg version="1.0" xmlns="http://www.w3.org/2000/svg"
 width="300.000000pt" height="200.000000pt" viewBox="0 0 300.000000 200.000000"
 preserveAspectRatio="xMidYMid meet">

<g transform="translate(0.000000,200.000000) scale(0.100000,-0.100000)"
fill="#000000" stroke="none">
<path d="M0 1000 l0 -1000 1500 0 1500 0 0 1000 0 1000 -1500 0 -1500 0 0
-1000z m535 130 c0 -21 -5 -26 -32 -28 l-33 -3 0 -104 c0 -120 -4 -135 -35
-135 -31 0 -35 15 -35 136 l0 104 -30 0 c-32 0 -47 18 -36 45 5 13 23 15 103
13 97 -3 98 -3 98 -28z m177 20 c68 -19 90 -93 44 -147 l-24 -27 19 -44 c25
-59 24 -72 -6 -72 -21 0 -29 9 -50 55 -17 40 -29 55 -44 55 -17 0 -20 -8 -23
-52 -3 -49 -5 -53 -28 -53 l-25 0 -3 134 c-1 74 0 141 2 148 6 16 85 17 138 3z
m511 -19 c19 -18 22 -35 25 -109 2 -58 -2 -95 -10 -112 -17 -32 -77 -52 -143
-48 l-50 3 -3 134 c-1 74 0 141 3 149 4 12 21 14 81 10 60 -4 80 -10 97 -27z
m132 -121 l0 -145 -25 0 -25 0 -3 148 -3 148 28 -3 28 -3 0 -145z m162 65 l48
-85 5 83 c5 79 6 82 30 82 l25 0 3 -139 c1 -79 -2 -144 -7 -149 -24 -24 -57 4
-101 84 l-45 82 -5 -84 c-5 -82 -6 -84 -30 -84 l-25 0 -3 134 c-1 74 0 141 2
148 3 7 16 13 30 13 21 0 33 -14 73 -85z m337 74 c25 -12 51 -63 40 -80 -11
-18 -56 -10 -61 11 -7 25 -44 36 -72 20 -19 -9 -21 -20 -21 -90 0 -69 3 -81
20 -90 31 -17 70 -2 70 26 0 17 -6 24 -20 24 -15 0 -20 7 -20 25 0 24 3 25 55
25 l55 0 0 -39 c0 -90 -31 -121 -121 -121 -40 0 -55 5 -74 25 -23 22 -25 31
-25 129 0 101 1 105 26 125 30 24 106 29 148 10z m358 -9 c51 -40 41 -131 -18
-155 -19 -8 -50 -22 -69 -30 -55 -23 -42 -35 36 -35 l70 0 -3 -27 -3 -28 -95
0 -95 0 -3 43 c-4 61 15 86 85 109 52 18 58 22 61 50 2 24 -2 33 -17 38 -25 8
-61 -10 -61 -30 0 -10 -10 -15 -30 -15 -27 0 -30 3 -30 29 0 64 114 98 172 51z
m178 -106 c0 -109 1 -114 21 -114 16 0 20 -5 17 -27 -3 -28 -3 -28 -83 -28
-79 0 -80 0 -80 25 0 21 5 26 33 28 l33 3 -3 77 c-2 55 -7 76 -15 75 -7 -2
-19 -4 -25 -5 -7 -2 -14 9 -16 24 -3 23 2 28 50 46 29 11 56 18 61 15 4 -2 7
-56 7 -119z m252 106 c51 -40 41 -131 -18 -155 -19 -8 -50 -22 -69 -30 -54
-23 -43 -35 34 -35 59 0 69 -3 74 -19 9 -36 -6 -42 -104 -39 l-94 3 -3 48 c-4
57 18 82 95 107 42 15 48 20 51 47 2 24 -2 33 -17 38 -25 8 -61 -10 -61 -30 0
-10 -10 -15 -30 -15 -25 0 -30 4 -30 25 0 14 11 37 25 50 32 33 110 35 147 5z
m-1686 -57 c16 -37 31 -71 32 -75 2 -4 -7 -8 -20 -8 -18 0 -27 10 -41 45 -11
25 -23 45 -27 45 -5 0 -16 -20 -26 -45 -13 -36 -21 -45 -41 -45 -14 0 -23 4
-21 8 53 129 61 142 88 142 24 0 30 -8 56 -67z"/>
<path d="M630 1064 c0 -34 1 -35 36 -32 71 6 68 68 -2 68 -32 0 -34 -2 -34
-36z"/>
<path d="M1100 1010 l0 -90 35 0 c43 0 55 20 55 90 0 70 -12 90 -55 90 l-35 0
0 -90z"/>
</g>
</svg>
